<?xml version="1.0" encoding="utf-8"?>
<!-- Generator: Adobe Illustrator 26.0.1, SVG Export Plug-In . SVG Version: 6.00 Build 0)  -->
<svg version="1.1" id="Layer_1" xmlns="http://www.w3.org/2000/svg" xmlns:xlink="http://www.w3.org/1999/xlink" x="0px" y="0px"
	 viewBox="0 0 100 93.5" style="enable-background:new 0 0 100 93.5;" xml:space="preserve">
<style type="text/css">
	.st0{fill:#393D45;}
</style>
<g>
	<g>
		<g>
			<path class="st0" d="M36.9,44.3L36.9,44.3L36.9,44.3L36.9,44.3z"/>
		</g>
	</g>
</g>
<g>
	<g>
		<g>
			<polygon class="st0" points="35.8,62.4 35.4,62.2 35.7,61.9 			"/>
			<polygon class="st0" points="38.2,73.3 38,73.1 38.1,73 			"/>
		</g>
	</g>
</g>
<g>
	<g>
		<g>
			<polygon class="st0" points="84,67.2 84,67.3 83.9,67.4 83.9,67.3 			"/>
			<path class="st0" d="M93.2,44.2L93.2,44.2L93.2,44.2C93.1,44.3,93.1,44.3,93.2,44.2C93.1,44.2,93.1,44.2,93.2,44.2L93.2,44.2
				L93.2,44.2z"/>
			<polygon class="st0" points="84,67.2 84,67.3 83.7,68.6 82.8,73.1 83.6,68.6 83.9,67.3 			"/>
			<path class="st0" d="M92.8,44.3h-3.9v-0.1h3.6C92.6,44.2,92.7,44.3,92.8,44.3z"/>
			<path class="st0" d="M93.1,44.2L93.1,44.2C93,44.2,93,44.3,93.1,44.2C93.1,44.2,93.1,44.2,93.1,44.2z"/>
			<path class="st0" d="M93.2,44.2L93.2,44.2L93.2,44.2L93.2,44.2z"/>
		</g>
	</g>
</g>
<g>
	<g>
		<g>
			<polygon class="st0" points="85.2,61.3 85,61.9 84.6,61.6 			"/>
		</g>
	</g>
</g>
<g>
	<g>
		<g>
			<polygon class="st0" points="85.2,61.3 85,61.9 84.6,61.6 			"/>
		</g>
	</g>
</g>
<g>
	<g>
		<g>
			<polygon class="st0" points="80.8,81.9 80.6,82.8 80.6,82.9 79.9,82.5 79.8,82.5 			"/>
		</g>
	</g>
</g>
<g>
	<g>
		<g>
			<path class="st0" d="M92.5,32.5H29.3c-2.5,0-4.7,1.6-5.5,3.8H14V0.9H1.6V92H14V58.8c0-8.6,9.3-13.8,12.4-15.3
				c0.4,0.2,0.8,0.4,1.2,0.5l9.8,45.7l4.1-0.9l-1-4.6l-2.2-3.4l1.6,3.5l0.5,0.1l3.8-2.4l5.6,3.5l-3.2,2.1L49,91l4.8-3.2l4.1,2.5
				l2.2-3.6l-2.5-1.5l3.8-2.6l5.1,3.1l-3,1.8l2.2,3.6l4.9-3l3.6,2.2l2.2-3.6l-1.7-1.1l5.1-3.1l1-0.6l-0.2,0.9v0.1l-1.3,5.9l4.1,0.9
				l9.8-45.4h-0.1c0,0,0.1-0.2,0-0.2s-0.2,0.1-0.3,0.1l-3.9,0L81.1,44l6.9,4.4l-1.3,5.8l0.6-0.2l0.7-5.7l-8,5.3l-5.7-3.8l8.5-5.5
				h6.1v-0.1h3.6c0.1,0,0.2,0.1,0.3,0.1c0.1,0,0.1,0,0.2,0c0.1-0.1,0.1-0.1,0.1-0.1l0,0l0,0v0.1l0,0h0.1c1.5-0.2,2.8-0.9,3.7-2
				c0.9-1,1.5-2.4,1.5-3.9C98.4,35.1,95.7,32.5,92.5,32.5z M14,47.7v-7.2h9C20.5,41.8,16.8,44.2,14,47.7z M60.9,66l-6.1-3.7l5.3-3.4
				l6,3.7L60.9,66z M70,65.1l5,3.1l-4.9,3.4l-5.2-3.2L70,65.1z M50.9,64.8l6.1,3.8L51.8,72l-6.2-3.8l5.2-3.4
				C50.8,64.8,50.9,64.8,50.9,64.8z M44.6,56.1l5.4-3.6l6.2,3.9l-5.4,3.5L44.6,56.1z M53.9,50l6.5-4.3l6.2,4l-6.5,4.2L53.9,50z
				 M54.8,44.3L50,47.5l-5.2-3.2H54.8z M32,44.3h4.9l-4.3,3L32,44.3z M40.8,46.7l5.3,3.4l-5.5,3.6l-5.3-3.2L40.8,46.7z M35.8,62.4
				l-0.4-0.2l0.3-0.3v-0.1l4.9-3.2l0.1,0.1l6.1,3.7l-5.3,3.4L35.8,62.4z M44.2,76.9l-6-3.6L38,73.1l0.1-0.1l3.5-2.2l6.3,3.7
				L44.2,76.9z M53.6,82.7l-5.5-3.3l3.8-2.5l5.5,3.3L53.6,82.7z M61.2,77.6l-5.4-3.2L61,71l5.2,3.2L61.2,77.6z M70.6,83.2L65.2,80
				l5-3.4l5.7,3.4L70.6,83.2z M84,67.3l-0.4,1.4l-0.9,4.4L82,76.3l-0.5,2.2l-1.6-1L74,74l4.9-3.4l3.8-2.6L84,67.3L84,67.3L84,67.3
				L84,67.3z M84.6,61.6l0.6-0.3L85,61.9L84.6,61.6l-5.8,4l-4.9-3.1l6.1-3.9L84.6,61.6z M76.2,56.1l-6.2,4l-6-3.8l6.4-4L76.2,56.1z
				 M70.4,47.2L66,44.3h9L70.4,47.2z"/>
		</g>
	</g>
</g>
<g>
	<g>
		<g>
			<polygon class="st0" points="84.3,66.4 84.6,66.3 84.9,67.7 83.1,72.3 79.2,69.8 82.3,66.6 84.2,66.5 			"/>
		</g>
	</g>
</g>
<g>
	<g>
		<g>
			<path class="st0" d="M93.2,44.2L93.2,44.2c-0.1,0-0.1,0-0.2,0.1L93.2,44.2L93.2,44.2L93.2,44.2z M92.5,44.2h-3.6v0.1h3.9
				C92.7,44.3,92.6,44.2,92.5,44.2z"/>
		</g>
	</g>
</g>
</svg>
