<?xml version="1.0" encoding="utf-8"?>
<!-- Generator: Adobe Illustrator 26.0.1, SVG Export Plug-In . SVG Version: 6.00 Build 0)  -->
<svg version="1.1" id="Layer_1" xmlns="http://www.w3.org/2000/svg" xmlns:xlink="http://www.w3.org/1999/xlink" x="0px" y="0px"
	 viewBox="0 0 100 125" style="enable-background:new 0 0 100 125;" xml:space="preserve">
<style type="text/css">
	.st0{fill:#393D45;}
</style>
<g>
	<g>
		<g>
			<path class="st0" d="M36.9,47.9L36.9,47.9L36.9,47.9L36.9,47.9z"/>
		</g>
	</g>
</g>
<g>
	<g>
		<g>
			<polygon class="st0" points="35.8,66 35.4,65.8 35.7,65.5 			"/>
			<polygon class="st0" points="38.2,76.9 38,76.7 38.1,76.6 			"/>
		</g>
	</g>
</g>
<g>
	<g>
		<g>
			<path class="st0" d="M93.2,47.9l-9.8,45.4l-4.1-0.9l1.3-5.9l-0.7-0.4h-0.1l-3.9-2.5l-5.7-3.4l3.8-2.6l5.9,3.5l1.6,1l0.5-2.2
				l0.7-3.2l1-4.4l0.3-1.4l0,0l0-0.1l-0.1,0.1l-1.2,0.7l-3.8,2.6L75,71.8l3.8-2.6l5.8-4l-4.6-3l3.8-2.5l2.2,1.4l-0.8,3.7v0.1
				l0.8-3.7l0.7-3.2v-0.1l-2.9,1.8L80,57.2l8-5.3l0.9-3.9h3.9c0.1,0,0.1,0,0.2,0C93,48,93.1,47.9,93.2,47.9L93.2,47.9z"/>
			<polygon class="st0" points="84,70.8 84,70.9 83.9,71 83.9,70.9 			"/>
			<path class="st0" d="M93.2,47.8l0,0.1h-0.1C93.1,47.9,93.1,47.9,93.2,47.8C93.1,47.8,93.1,47.8,93.2,47.8
				C93.1,47.8,93.1,47.8,93.2,47.8C93.2,47.8,93.2,47.8,93.2,47.8z"/>
			<polygon class="st0" points="84,70.8 84,70.9 83.7,72.2 82.7,76.6 83.6,72.2 83.9,70.9 			"/>
			<path class="st0" d="M92.5,47.8c0.1,0,0.2,0.1,0.3,0.1C92.7,47.9,92.6,47.9,92.5,47.8l-3.6,0.1v-0.1H92.5z"/>
			<path class="st0" d="M93.2,47.8L93.2,47.8c-0.1,0-0.1,0.1-0.2,0.1C93.1,47.8,93.2,47.8,93.2,47.8z"/>
		</g>
	</g>
</g>
<g>
	<g>
		<g>
			<polygon class="st0" points="44.2,47.9 40.8,50.3 36.9,47.9 			"/>
		</g>
	</g>
</g>
<g>
	<g>
		<g>
			<polygon class="st0" points="82.8,47.9 74.3,53.4 70.4,55.9 64,59.9 60.1,62.5 54.8,65.9 50.9,68.4 50.8,68.4 45.6,71.8 
				41.5,69.4 46.8,66 50.8,63.5 56.2,60 60.1,57.5 66.6,53.3 70.4,50.8 75,47.9 			"/>
		</g>
	</g>
</g>
<g>
	<g>
		<g>
			<polygon class="st0" points="78.9,74.2 74,77.6 70.2,80.2 65.2,83.6 61.4,86.2 57.6,88.8 53.8,91.4 49,94.6 46.6,91.1 49.8,89 
				53.6,86.3 57.4,83.8 61.2,81.2 66.2,77.8 70.1,75.2 75,71.8 			"/>
		</g>
	</g>
</g>
<g>
	<g>
		<g>
			<polygon class="st0" points="83.8,59.7 80,62.2 76.2,59.7 70.4,55.9 66.6,53.3 60.4,49.3 58.3,47.9 66,47.9 70.4,50.8 74.3,53.4 
				80,57.2 			"/>
		</g>
	</g>
</g>
<g>
	<g>
		<g>
			<polygon class="st0" points="36.7,59.9 36.2,59.6 36.6,59.8 			"/>
			<polygon class="st0" points="74,77.6 70.2,80.2 66.2,77.8 61,74.6 57,72.2 50.9,68.4 50.8,68.4 46.8,66 40.7,62.3 40.6,62.2 
				36.7,59.9 40.6,57.3 44.6,59.7 50.8,63.5 54.8,65.9 60.9,69.6 64.9,72 70.1,75.2 			"/>
		</g>
	</g>
</g>
<g>
	<g>
		<g>
			<polygon class="st0" points="60.1,90.3 57.9,93.9 53.8,91.4 49.8,89 44.2,85.5 48.1,83 53.6,86.3 57.6,88.8 			"/>
		</g>
	</g>
</g>
<g>
	<g>
		<g>
			<polygon class="st0" points="83.8,59.7 80,62.2 73.9,66.1 70,68.7 64.9,72 61,74.6 55.8,78 51.9,80.5 48.1,83 44.2,80.5 
				47.9,78.1 51.8,75.6 57,72.2 60.9,69.6 66.1,66.2 70,63.7 76.2,59.7 80,57.2 			"/>
		</g>
	</g>
</g>
<g>
	<g>
		<g>
			<path class="st0" d="M40.5,87.7l-2.2-3.3L40.5,87.7l1,4.7l-4.1,0.9l-9.8-45.7c0.6,0.2,1.1,0.3,1.8,0.3H32l0.6,3l4.3-3l3.9,2.4
				l-5.5,3.8l5.3,3.2l-3.9,2.6l-0.1-0.1l-0.4-0.2l0,0l-0.5-0.3l1,0.6l3.9,2.3l-4.9,3.2v0.1l-0.3,0.3l0.4,0.2l5.7,3.4l4.1,2.4l-4,2.6
				l-3.5,2.2L38,76.7l0.2,0.2l6,3.6l3.9,2.5l-3.9,2.5l-3.6,2.4L40.5,87.7z"/>
			<polygon class="st0" points="36.7,59.9 35.7,59.3 36.2,59.6 36.2,59.6 			"/>
			<polygon class="st0" points="36.7,59.9 35.7,59.3 36.2,59.6 36.2,59.6 36.6,59.8 			"/>
			<polygon class="st0" points="62.5,47.9 60.4,49.3 53.9,53.6 50,56.1 44.6,59.7 40.7,62.3 40.6,62.2 36.7,59.9 40.6,57.3 
				46.1,53.7 50,51.1 54.8,47.9 			"/>
		</g>
	</g>
</g>
<g>
	<g>
		<g>
			<polygon class="st0" points="79.8,86.1 74.7,89.2 70.6,91.7 65.7,94.7 63.5,91.1 66.5,89.3 70.6,86.8 75.9,83.6 			"/>
		</g>
	</g>
</g>
<g>
	<g>
		<g>
			<polygon class="st0" points="84,70.8 84,70.9 83.7,72.2 82.7,76.6 83.6,72.2 83.9,70.9 			"/>
			<polygon class="st0" points="78.8,69.2 75,71.8 70,68.7 66.1,66.2 60.1,62.5 56.2,60 50,56.1 46.1,53.7 40.8,50.3 36.9,47.9 
				44.8,47.9 50,51.1 53.9,53.6 60.1,57.5 64,59.9 70,63.7 73.9,66.1 			"/>
		</g>
	</g>
</g>
<g>
	<g>
		<g>
			<polygon class="st0" points="76.4,90.3 74.2,93.9 70.6,91.7 66.5,89.3 61.4,86.2 57.4,83.8 51.9,80.5 47.9,78.1 41.6,74.4 
				45.6,71.8 51.8,75.6 55.8,78 61.2,81.2 65.2,83.6 70.6,86.8 74.7,89.2 			"/>
		</g>
	</g>
</g>
<g>
	<g>
		<g>
			<path class="st0" d="M92.5,36.1H29.3c-2.5,0-4.7,1.6-5.5,3.8H14V4.5H1.6v91.1H14V62.4c0-8.6,9.3-13.8,12.4-15.3
				c0.4,0.2,0.8,0.4,1.2,0.5c0.6,0.2,1.1,0.3,1.8,0.3h63.4c0.1,0,0.1,0,0.2,0h0.2c0,0,0,0,0,0h0.1c1.5-0.2,2.8-0.9,3.7-2
				c0.9-1,1.5-2.4,1.5-3.9C98.4,38.7,95.7,36.1,92.5,36.1z M14,51.3v-7.2h9C20.5,45.4,16.8,47.8,14,51.3z"/>
		</g>
	</g>
</g>
</svg>
