<?xml version="1.0" encoding="utf-8"?>
<!-- Generator: Adobe Illustrator 26.0.1, SVG Export Plug-In . SVG Version: 6.00 Build 0)  -->
<svg version="1.1" id="Layer_1" xmlns="http://www.w3.org/2000/svg" xmlns:xlink="http://www.w3.org/1999/xlink" x="0px" y="0px"
	 viewBox="0 0 309.6 72.5" style="enable-background:new 0 0 309.6 72.5;" xml:space="preserve">
<style type="text/css">
	.st0{fill:#393D45;}
</style>
<path class="st0" d="M77.7,71c-0.9,0-1.4-0.5-1.4-1.4c0-0.9,0.5-1.4,1.4-1.4c3.4,0,5.6-0.5,6.8-1.5c1.2-1,1.8-2.5,1.8-4.4V8.9
	c0-1.9-0.6-3.4-1.7-4.4c-1.1-1-3.5-1.5-7.1-1.5c-0.8,0-1.3-0.5-1.3-1.4c0-0.9,0.4-1.4,1.3-1.4c0.6,0,2.3,0,5,0.1
	c2.8,0.1,6,0.1,9.7,0.1c6.8,0,12.4,0,16.6-0.1c4.3-0.1,7.1-0.1,8.5-0.1c3.8,0,7.2,0.7,10,2c2.8,1.4,5,3.2,6.6,5.6
	c1.6,2.4,2.3,5.1,2.3,8.1c0,3.8-0.9,6.8-2.6,9.2c-1.7,2.4-3.9,4.2-6.5,5.6c-2.6,1.4-5.2,2.4-7.7,3.2c1.6,0,3.5,0.3,5.7,0.9
	c2.2,0.6,4.4,1.5,6.5,2.8c2.1,1.3,3.9,3.1,5.3,5.3c1.4,2.2,2.1,5,2.1,8.4c0,4.3-1.1,7.9-3.2,10.8c-2.1,2.9-5.1,5.1-8.9,6.5
	s-8.2,2.2-13.3,2.2c-0.7,0-1.5,0-2.3,0c-0.8,0-2,0-3.5,0s-3.5,0-6,0c-2.5,0-5.8,0-9.9,0c-3.8,0-6.9,0-9.5,0.1
	C79.9,71,78.3,71,77.7,71z M98.1,32.4h11.7c8.9,0,13.3-5.3,13.3-15.9c0-3.8-0.9-7-2.7-9.4c-1.8-2.5-5-3.7-9.5-3.7H98.1V32.4z
	 M100.3,68.1h10.2c5.2,0,9-1.6,11.4-4.7s3.6-7.1,3.6-11.9c0-4.5-1.3-8.2-3.8-11.2c-2.6-3-6.6-4.5-12.1-4.5H98.1V66
	c0,0.6,0.1,1.1,0.4,1.5S99.4,68.1,100.3,68.1z"/>
<path class="st0" d="M147.3,71c-1,0-1.6-0.5-1.6-1.6c0-1.1,0.5-1.7,1.6-1.7c2.5,0,4.1-0.5,5-1.6c0.8-1,1.3-2.7,1.3-5.1V33.5
	c0-1.8-0.2-3-0.5-3.6c-0.4-0.6-1-1-1.9-1c-0.5-0.1-1.2-0.1-2.3-0.2c-1.1-0.1-1.8-0.2-2.3-0.2c-0.9-0.2-1.4-0.7-1.4-1.7
	c0-1,0.5-1.6,1.5-1.6c0.2,0,1,0,2.4,0c1.4,0,3,0,4.8,0c1.8,0,3.4,0,4.9,0c1.5,0,2.4,0,2.8,0c1.6,0,2.4,0.7,2.4,2.2v34
	c0,2.3,0.4,4,1.2,5.1c0.8,1,2.2,1.6,4.3,1.6c1,0,1.5,0.6,1.5,1.7c0,1-0.5,1.6-1.5,1.6c-0.5,0-1.3,0-2.6-0.1
	c-1.3-0.1-2.7-0.1-4.2-0.1c-1.5,0-2.8,0-4,0c-1.1,0-2.5,0-4.1,0c-1.6,0-3.1,0.1-4.5,0.1C148.7,71,147.8,71,147.3,71z M158,14.4
	c-1.9,0-3.6-0.7-5-2c-1.4-1.4-2-3-2-5s0.7-3.6,2-5c1.4-1.4,3-2,5-2s3.6,0.7,5,2c1.4,1.4,2,3,2,5s-0.7,3.6-2,5
	C161.6,13.7,160,14.4,158,14.4z"/>
<path class="st0" d="M177.4,71c-1,0-1.5-0.6-1.5-1.7c0-1,0.5-1.6,1.5-1.6c2.2,0,3.7-0.5,4.5-1.5c0.8-1,1.2-2.6,1.2-5v-28
	c0-1.3-0.1-2.3-0.3-3.1c-0.2-0.7-0.7-1.2-1.6-1.3c-0.5-0.1-1.1-0.2-2-0.3c-0.9-0.1-1.6-0.2-2-0.2c-0.9-0.1-1.4-0.6-1.4-1.6
	c0-1,0.5-1.6,1.5-1.6c0.2,0,0.9,0,2.2-0.1c1.3-0.1,2.8-0.1,4.4-0.1c1.6,0,3.1,0,4.5,0c1.4,0,2.2,0,2.6,0c1.6,0.1,2.4,0.9,2.4,2.5
	v5.5c0.9-1.5,2.1-2.9,3.7-4.3c1.5-1.4,3.4-2.5,5.5-3.5c2.1-0.9,4.5-1.4,7.1-1.4c2.4,0,4.6,0.5,6.6,1.4c2,0.9,3.6,2.4,4.9,4.6
	c1.2,2.1,1.8,5.1,1.8,8.9v22.6c0,2.5,0.4,4.2,1.1,5.2c0.7,1,1.9,1.5,3.6,1.5c1,0,1.5,0.5,1.5,1.6c0,1.1-0.5,1.7-1.5,1.7
	c-0.5,0-1.3,0-2.4-0.1c-1.2-0.1-2.4-0.1-3.8-0.1c-1.4,0-2.6,0-3.8,0c-1.1,0-2.3,0-3.7,0c-1.4,0-2.6,0.1-3.7,0.1
	c-1.1,0.1-2,0.1-2.5,0.1c-1,0-1.5-0.6-1.5-1.7c0-1,0.5-1.6,1.5-1.6c2,0,3.3-0.5,3.9-1.5c0.6-1,0.9-2.6,0.9-5V40c0-3.7-0.7-6.3-2-7.8
	c-1.4-1.5-3.3-2.3-5.7-2.3c-1.8,0-3.6,0.6-5.3,1.7c-1.7,1.1-3.1,2.6-4.2,4.5c-1.1,1.9-1.6,4-1.6,6.2v18.9c0,2.5,0.4,4.2,1.1,5.2
	c0.7,1,1.8,1.5,3.2,1.5c1,0,1.6,0.5,1.6,1.6c0,1.1-0.5,1.7-1.6,1.7c-0.7,0-2.1,0-4-0.1c-2-0.1-3.8-0.1-5.5-0.1c-1.1,0-2.4,0-4,0
	c-1.6,0-3,0.1-4.3,0.1C178.8,71,177.9,71,177.4,71z"/>
<path class="st0" d="M236,71c-1,0-1.5-0.6-1.5-1.7c0-1,0.5-1.6,1.5-1.6c1.6,0,3.3-0.5,5.1-1.5c1.8-1,3.6-2.6,5.3-4.8
	c2.1-2.9,3.8-5,5-6.6c1.2-1.5,2-2.7,2.6-3.5c0.6-0.8,1-1.5,1.4-2c-0.1-0.1-0.4-0.5-1.1-1.5c-0.7-0.9-1.5-2-2.5-3.4c-1-1.3-2-2.7-3-4
	c-1-1.4-1.9-2.6-2.7-3.6c-0.8-1-1.3-1.7-1.5-1.9c-1.4-1.9-2.8-3.5-4.1-4.9c-1.3-1.4-2.7-2-4.2-2c-1,0-1.6-0.6-1.6-1.7
	c0-1,0.5-1.6,1.6-1.6c0.7,0,2,0,3.8,0.1c1.8,0.1,3.5,0.1,5.2,0.1c1.2,0,2.4,0,3.7-0.1c1.3-0.1,2.6-0.1,3.7-0.1c1.2,0,2,0,2.4,0
	c1,0,1.5,0.5,1.5,1.6c0,1.1-0.5,1.7-1.5,1.7c-0.8,0-1.3,0.3-1.5,0.9c-0.1,0.6,0,1.2,0.5,1.9l7.5,10c1.2-1.6,2.3-3,3.1-4.1
	c0.8-1.1,1.6-2.1,2.2-3c1.2-1.5,1.6-2.8,1.2-4c-0.4-1.2-1.7-1.8-3.8-1.8c-1,0-1.6-0.6-1.6-1.7c0-1,0.5-1.6,1.6-1.6
	c0.7,0,1.8,0,3.3,0.1c1.5,0.1,3.1,0.1,4.8,0.1c1.7,0,3.3,0,4.8-0.1c1.5-0.1,2.6-0.1,3.3-0.1c1,0,1.6,0.5,1.6,1.6
	c0,1.1-0.5,1.7-1.6,1.7c-1.5,0-3.2,0.7-5.1,2c-1.9,1.3-3.6,3-5.1,4.9c-0.4,0.5-1,1.2-1.8,2.3c-0.8,1.1-1.6,2.2-2.5,3.4
	c-0.9,1.2-1.7,2.3-2.5,3.2c0.5,0.8,1.4,2,2.6,3.6c1.2,1.7,2.5,3.4,3.9,5.3c1.4,1.8,2.7,3.5,3.8,5c1.1,1.5,1.8,2.4,2.1,2.8
	c1.7,2.2,3.3,4,4.7,5.3c1.5,1.3,2.7,1.9,3.7,1.9c1,0,1.6,0.5,1.6,1.6c0,1.1-0.5,1.7-1.6,1.7c-0.5,0-1.3,0-2.5-0.1
	c-1.2-0.1-2.5-0.1-3.9-0.1c-1.4,0-2.7,0-3.9,0c-1.7,0-3.5,0-5.5,0.1c-2,0.1-3.4,0.1-4.1,0.1c-1,0-1.5-0.6-1.5-1.7
	c0-1,0.5-1.6,1.5-1.6c1.2,0,1.9-0.4,2-1.2c0.1-0.8-0.1-1.6-0.6-2.4c-0.2-0.3-0.7-1.1-1.7-2.3c-0.9-1.2-1.9-2.5-3-3.9
	c-1.1-1.4-2-2.7-2.8-3.8c-0.8-1.1-1.2-1.7-1.3-1.8c-0.1,0.1-0.4,0.6-0.9,1.4c-0.6,0.8-1.2,1.7-1.9,2.7c-0.7,1-1.4,1.9-2.1,2.8
	c-0.6,0.9-1.1,1.5-1.3,1.8c-1.2,1.8-1.4,3.3-0.8,4.7c0.6,1.4,2,2.1,4.2,2.1c1,0,1.6,0.5,1.6,1.6c0,1.1-0.5,1.7-1.6,1.7
	c-0.7,0-2,0-4-0.1c-1.9-0.1-3.8-0.1-5.5-0.1c-1.7,0-3.5,0-5.3,0.1C238,71,236.7,71,236,71z"/>
<path class="st0" d="M301.4,72.2c-2.2,0-4.1-0.8-5.6-2.3c-1.5-1.5-2.3-3.4-2.3-5.6c0-2.2,0.8-4.1,2.3-5.6c1.5-1.5,3.4-2.3,5.6-2.3
	c2.2,0,4.1,0.8,5.6,2.3c1.5,1.5,2.3,3.4,2.3,5.6c0,2.2-0.8,4.1-2.3,5.6C305.5,71.4,303.6,72.2,301.4,72.2z"/>
<g>
	<path class="st0" d="M31.2,35.8l-9.4-9.4c-3.5,3.1-7.4,5.6-11.7,7.4c-3.1,1.3-6.3,2.1-9.6,2.6c0.1,7.8,2.8,15.7,8.2,22L31.2,35.8z"
		/>
	<path class="st0" d="M69.6,35.7c-0.1-8-2.9-16-8.4-22.4L38.7,35.8l9.4,9.4c3.4-2.9,7.1-5.3,11.3-7C62.7,37,66.1,36.1,69.6,35.7z"/>
	<path class="st0" d="M18,22.7l-9.3-9.3c-4.4,5.1-7.1,11.2-8,17.5C7,29.9,13,27.1,18,22.7z"/>
	<path class="st0" d="M12.5,9.6l9.2,9.2c4.2-5,6.7-10.9,7.6-17.1C23.2,2.8,17.4,5.4,12.5,9.6z"/>
	<path class="st0" d="M48.1,52.8c-4.4,5.1-7,11.1-7.9,17.4c6.2-0.9,12.3-3.6,17.3-7.9L48.1,52.8z"/>
	<path class="st0" d="M69.6,35.9L69.6,35.9C69.6,35.9,69.6,35.9,69.6,35.9z"/>
	<path class="st0" d="M34.7,1.3c-0.4,3.6-1.3,7.1-2.7,10.5c-1.6,3.9-3.8,7.6-6.6,10.8l9.5,9.5L57.5,9.6c-6.7-5.7-15.1-8.5-23.4-8.2
		H34.7z"/>
	<path class="st0" d="M51.9,49l9.4,9.4c4.4-5.1,7-11.1,7.9-17.3C63,42,57,44.7,51.9,49z"/>
	<path class="st0" d="M34.8,70.5c0.4-3.5,1.3-6.9,2.6-10.2c1.7-4.1,4-7.9,7-11.3l-9.4-9.4L12.4,62.1C18.8,67.7,26.8,70.5,34.8,70.5z
		"/>
</g>
</svg>
