<?xml version="1.0" standalone="no"?>
<!DOCTYPE svg PUBLIC "-//W3C//DTD SVG 20010904//EN"
 "http://www.w3.org/TR/2001/REC-SVG-20010904/DTD/svg10.dtd">
<svg version="1.0" xmlns="http://www.w3.org/2000/svg"
 width="584.000000pt" height="584.000000pt" viewBox="0 0 584.000000 584.000000"
 preserveAspectRatio="xMidYMid meet">
<metadata>
Created by potrace 1.14, written by Peter Selinger 2001-2017
</metadata>
<g transform="translate(0.000000,584.000000) scale(0.100000,-0.100000)"
fill="#000000" stroke="none">
<path d="M2865 5719 c-3 -8 -7 -32 -9 -54 -7 -67 -51 -291 -71 -365 -2 -8 -11
-42 -20 -75 -9 -33 -20 -69 -24 -80 -5 -11 -23 -60 -39 -110 -17 -49 -39 -108
-48 -130 -10 -22 -18 -42 -19 -45 -22 -74 -176 -364 -273 -515 -51 -78 -195
-270 -224 -298 -10 -10 -18 -21 -18 -25 0 -4 171 -178 379 -386 297 -297 383
-377 393 -369 7 7 416 413 909 905 498 495 895 899 892 906 -3 6 -9 12 -15 12
-6 0 -29 16 -52 36 -45 38 -45 39 -96 74 -19 13 -37 27 -40 30 -11 14 -222
141 -310 187 -153 80 -441 193 -553 218 -12 2 -62 14 -110 25 -48 11 -104 23
-124 26 -19 3 -45 8 -57 10 -53 12 -183 23 -338 31 -103 4 -129 3 -133 -8z"/>
<path d="M2380 5693 c-109 -18 -400 -102 -485 -139 -16 -7 -63 -27 -104 -44
-41 -17 -127 -58 -190 -92 -64 -33 -126 -66 -138 -72 -13 -6 -23 -14 -23 -18
0 -5 -5 -8 -11 -8 -9 0 -131 -80 -179 -117 -124 -97 -171 -135 -168 -138 27
-32 733 -735 737 -735 4 0 38 43 76 95 39 53 75 101 81 108 6 7 45 69 86 138
82 137 148 269 198 399 17 47 36 94 40 105 5 11 16 45 25 75 9 30 19 62 22 70
8 18 7 16 18 65 12 59 12 56 25 105 7 25 13 54 15 65 1 11 5 36 9 55 18 99 20
92 -34 83z"/>
<path d="M4096 3866 c-494 -496 -899 -905 -900 -909 -1 -4 167 -176 373 -382
393 -394 374 -378 417 -340 65 58 310 235 404 291 127 76 173 103 195 113 11
5 67 32 124 60 57 28 108 51 113 51 6 0 24 6 41 14 39 17 133 49 247 82 80 24
95 28 138 38 9 2 37 9 61 16 25 6 56 13 70 15 14 2 26 4 26 5 0 2 97 19 210
36 59 9 61 11 59 62 -3 87 -15 246 -19 251 -2 3 -6 29 -9 56 -6 48 -20 133
-31 185 -2 14 -7 34 -9 45 -14 64 -52 205 -71 260 -20 61 -64 177 -76 205 -7
14 -18 39 -25 55 -33 79 -87 185 -95 191 -5 3 -7 9 -4 14 3 5 1 11 -4 15 -5 3
-16 18 -24 33 -20 41 -38 70 -84 140 -24 35 -43 67 -43 73 0 5 -4 9 -8 9 -4 0
-16 13 -25 30 -10 16 -23 35 -30 42 -7 7 -24 30 -40 50 -15 21 -40 50 -55 66
l-27 29 -899 -901z"/>
<path d="M728 4708 c-96 -115 -240 -323 -230 -332 3 -3 1 -6 -5 -6 -9 0 -151
-273 -186 -360 -39 -96 -104 -285 -112 -328 -2 -9 -4 -17 -5 -17 -1 0 -4 -11
-6 -25 -2 -14 -11 -52 -19 -85 -16 -65 -22 -97 -32 -164 -5 -39 -4 -43 13 -37
10 3 37 8 59 12 314 47 712 213 1035 429 94 63 274 204 275 216 0 3 -167 173
-372 377 l-371 372 -44 -52z"/>
<path d="M1804 3697 c-26 -28 -147 -127 -224 -182 -30 -22 -57 -42 -60 -46 -3
-3 -9 -8 -15 -10 -5 -2 -56 -34 -112 -72 -56 -37 -107 -67 -112 -67 -5 0 -11
-3 -13 -7 -1 -5 -21 -18 -43 -29 -174 -92 -224 -116 -325 -158 -63 -26 -124
-51 -135 -56 -17 -8 -208 -68 -240 -76 -5 -2 -19 -5 -30 -8 -92 -23 -340 -73
-373 -75 -11 -1 -13 -23 -8 -113 4 -62 8 -124 10 -138 2 -14 7 -52 11 -85 4
-32 9 -68 11 -80 2 -11 6 -33 9 -50 4 -30 10 -58 20 -105 4 -14 8 -34 10 -45
11 -50 15 -62 25 -95 6 -19 13 -46 16 -59 6 -31 90 -263 116 -321 25 -55 98
-202 126 -251 40 -71 47 -84 80 -131 17 -26 32 -50 32 -53 0 -3 6 -13 14 -22
8 -10 42 -54 75 -98 33 -44 69 -91 80 -105 l20 -25 885 888 c486 488 893 899
906 912 l22 23 -376 376 c-207 207 -380 376 -384 376 -4 -1 -12 -6 -18 -13z"/>
<path d="M2610 2373 c-151 -150 -560 -558 -909 -906 l-633 -631 28 -24 c230
-188 477 -340 719 -438 33 -14 69 -29 80 -34 23 -10 136 -49 162 -56 10 -2 52
-13 93 -25 65 -18 206 -49 288 -64 82 -14 251 -28 351 -29 l84 -1 3 30 c4 52
44 259 69 360 9 33 17 69 20 80 11 50 97 301 106 309 5 6 9 18 9 28 0 9 9 33
20 53 11 19 18 35 16 35 -5 0 123 255 161 320 14 25 43 71 65 103 21 32 38 60
38 63 0 5 69 103 85 120 5 7 30 39 54 73 24 33 48 61 52 61 5 0 9 5 9 11 0 5
13 24 30 42 16 18 30 35 30 39 0 6 -693 703 -736 739 -18 16 -31 5 -294 -258z"/>
<path d="M5600 2522 c-26 -4 -204 -40 -230 -47 -8 -3 -31 -9 -50 -14 -120 -32
-192 -58 -354 -124 -77 -31 -301 -150 -391 -206 -84 -53 -199 -136 -303 -218
l-22 -18 376 -377 c207 -207 381 -374 387 -372 26 11 215 275 290 404 34 58
149 290 151 304 1 6 4 16 8 21 41 68 143 413 164 555 3 19 9 49 13 66 9 32 8
33 -39 26z"/>
<path d="M3920 1558 c-127 -136 -335 -471 -410 -663 -13 -33 -27 -64 -31 -70
-17 -25 -99 -281 -114 -355 -2 -8 -8 -35 -15 -60 -7 -25 -13 -54 -15 -65 -1
-11 -5 -33 -8 -50 -4 -16 -9 -49 -12 -71 l-6 -41 43 8 c24 5 55 11 71 14 59 9
237 55 332 85 165 53 373 146 538 241 72 42 258 166 267 179 3 4 12 11 21 16
9 5 40 29 68 53 l52 44 -201 202 c-111 111 -279 281 -375 378 -95 97 -176 177
-179 177 -3 0 -15 -10 -26 -22z"/>
</g>
</svg>
